<?xml version="1.0" encoding="UTF-8" standalone="no"?>
<svg
   xmlns:dc="http://purl.org/dc/elements/1.1/"
   xmlns:cc="http://creativecommons.org/ns#"
   xmlns:rdf="http://www.w3.org/1999/02/22-rdf-syntax-ns#"
   xmlns:svg="http://www.w3.org/2000/svg"
   xmlns="http://www.w3.org/2000/svg"
   xmlns:sodipodi="http://sodipodi.sourceforge.net/DTD/sodipodi-0.dtd"
   xmlns:inkscape="http://www.inkscape.org/namespaces/inkscape"
   viewBox="0 0 512 512"
   version="1.1"
   id="svg4"
   sodipodi:docname="icon.svg"
   inkscape:version="1.0.1 (3bc2e813f5, 2020-09-07)">
  <metadata
     id="metadata10">
    <rdf:RDF>
      <cc:Work
         rdf:about="">
        <dc:format>image/svg+xml</dc:format>
        <dc:type
           rdf:resource="http://purl.org/dc/dcmitype/StillImage" />
        <dc:title></dc:title>
      </cc:Work>
    </rdf:RDF>
  </metadata>
  <defs
     id="defs8" />
  <sodipodi:namedview
     pagecolor="#ffffff"
     bordercolor="#666666"
     borderopacity="1"
     objecttolerance="10"
     gridtolerance="10"
     guidetolerance="10"
     inkscape:pageopacity="0"
     inkscape:pageshadow="2"
     inkscape:window-width="1920"
     inkscape:window-height="1129"
     id="namedview6"
     showgrid="true"
     inkscape:zoom="1.4355469"
     inkscape:cx="287.69524"
     inkscape:cy="256"
     inkscape:window-x="-8"
     inkscape:window-y="384"
     inkscape:window-maximized="1"
     inkscape:current-layer="svg4"
     inkscape:document-rotation="0"
     inkscape:snap-grids="false">
    <inkscape:grid
       type="xygrid"
       id="grid11" />
  </sodipodi:namedview>
  <path
     d="M448 0H224C188.7 0 160 28.65 160 64v224c0 35.35 28.65 64 64 64h224c35.35 0 64-28.65 64-64V64C512 28.65 483.3 0 448 0zM464 288c0 8.822-7.178 16-16 16H224C215.2 304 208 296.8 208 288V64c0-8.822 7.178-16 16-16h224c8.822 0 16 7.178 16 16V288zM304 448c0 8.822-7.178 16-16 16H64c-8.822 0-16-7.178-16-16V224c0-8.822 7.178-16 16-16h64V160H64C28.65 160 0 188.7 0 224v224c0 35.35 28.65 64 64 64h224c35.35 0 64-28.65 64-64v-64h-48V448z"
     id="path2"
     style="fill:#000000" />
  <path
     style="fill:none;stroke:#000000;stroke-width:40;stroke-linecap:butt;stroke-linejoin:miter;stroke-miterlimit:4;stroke-dasharray:none;stroke-opacity:1"
     d="m 240,100.2 196.51701,0 v 0 0 0"
     id="path15"
     sodipodi:nodetypes="ccccc" />
  <path
     style="fill:none;stroke:#000000;stroke-width:40;stroke-linecap:butt;stroke-linejoin:miter;stroke-miterlimit:4;stroke-dasharray:none;stroke-opacity:1"
     d="m 80,260 h 47.9102 v 0 0 0"
     id="path15-7"
     sodipodi:nodetypes="ccccc" />
</svg>
